<svg width="116" height="34" viewBox="0 0 116 34" version="1.1" xmlns="http://www.w3.org/2000/svg"><g stroke="none" stroke-width="1" fill="none" fill-rule="evenodd"><g fill="#000000"><path d="M0.3 33.4L33 33.4 33 0.5 0.3 0.5 0.3 33.4ZM4.3 15.9C3.5 12.6 5.6 9.5 8.9 8.8 9.2 8.7 9.5 8.7 9.9 8.7 14.3 8.7 18.7 8.7 23.2 8.7 23.3 8.7 23.4 8.7 23.6 8.7L12.3 20.1C12.2 20.2 11.9 20.4 11.8 20.4 8.4 20.7 5.3 19.7 4.3 15.9L4.3 15.9ZM24.4 25.1C24.1 25.2 23.8 25.2 23.4 25.2 19 25.2 14.6 25.2 10.1 25.2 10 25.2 9.9 25.2 9.7 25.2L21 13.8C21.1 13.7 21.3 13.5 21.5 13.5 24.9 13.2 28 14.2 29 18 29.8 21.3 27.7 24.4 24.4 25.1L24.4 25.1ZM35.4 18.2L41 18.2C46.1 18.2 50 20.5 50 26.1 50 30.6 46.8 33.5 42.4 33.5L35.4 33.5 35.4 18.2 35.4 18.2ZM40.9 28.9L41.3 28.9C43.1 28.9 44.5 28.1 44.5 26.1 44.5 23.9 43.3 23 41.3 23L40.9 23 40.9 28.9 40.9 28.9Z"/><polygon points="50.4 18.2 55.9 18.2 55.9 33.5 50.4 33.5"/><path d="M73.1 24.5C73 27 73 29.1 71.2 31 69.6 32.8 67.1 33.7 64.8 33.7 60.2 33.7 56.4 30.9 56.4 26 56.4 21 60.1 18 64.8 18 67.5 18 71.1 19.3 72.3 21.9L67.1 23.8C66.7 23.1 65.9 22.6 65 22.6 63.1 22.6 62 24.3 62 26.2 62 27.9 63 29.4 64.8 29.4 65.7 29.4 66.8 29 67 28.1L64.6 28.1 64.6 24.5 73.1 24.5"/><polygon points="73.6 18.2 79.1 18.2 79.1 33.5 73.6 33.5"/><polyline points="79.8 18.2 91.4 18.2 91.4 23.2 88.3 23.1 88.3 33.5 82.8 33.5 82.8 23.1 79.8 23.2 79.8 18.2"/><path d="M94.6 33.5L88.8 33.5 94.1 18.2 100.2 18.2 105.6 33.5 99.8 33.5 99.2 31.6 95.1 31.6 94.6 33.5 94.6 33.5ZM98.3 28L97.6 25.3C97.5 24.6 97.4 24 97.3 23.3L97.1 23.3 96.1 28 98.3 28 98.3 28Z"/><polyline points="105.4 18.2 110.9 18.2 110.9 28.6 115.6 28.6 115.6 33.5 105.4 33.5 105.4 18.2"/><path d="M48.3 0.5L55.9 0.5C59.8 0.5 62.7 2.5 62.7 6.7 62.7 10.1 60.6 12.2 57.2 12.2L54.1 12.2 54.1 17.3 48.3 17.3 48.3 0.5 48.3 0.5ZM54.1 8L54.7 8C55.8 8 56.9 7.8 56.9 6.5 56.9 5.2 55.7 5.1 54.7 5.1L54.1 5.1 54.1 8 54.1 8Z"/><polygon points="63.3 0.5 69.4 0.5 69.4 17.3 63.3 17.3"/><path d="M70.3 0.5L77.7 0.5C81.4 0.5 84.6 2.1 84.6 6.3 84.6 8.9 83.6 9.9 81.4 10.7L81.4 10.8C81.7 11.1 82.1 11.3 82.4 11.8L86 17.3 79 17.3 76.4 11.9 76.3 11.9 76.3 17.3 70.3 17.3 70.3 0.5 70.3 0.5ZM76.3 7.9L76.7 7.9C77.7 7.9 78.7 7.8 78.7 6.5 78.7 5.2 77.8 5.1 76.7 5.1L76.3 5.1 76.3 7.9 76.3 7.9Z"/><polyline points="85.4 0.5 96.6 0.5 96.6 5.1 91.5 5.1 91.5 6.7 96.1 6.7 96.1 11 91.5 11 91.5 12.7 96.8 12.7 96.8 17.3 85.4 17.3 85.4 0.5"/><path d="M44.1 6.8L42.7 6.4C42.2 6.3 41.5 6.2 41.5 5.6 41.5 4.9 42.2 4.7 42.8 4.7 44 4.7 45.1 5.2 46.1 5.9L47.7 1.6C46.1 0.7 44.5 0.2 42.6 0.2 39 0.2 35.4 2.5 35.4 6.4 35.4 9.1 37.4 10.5 39.8 10.9L41 11.1C41.5 11.2 42.3 11.3 42.3 12 42.3 12.8 41.4 13 40.8 13 39.4 13 38.1 12.4 37 11.5L36.7 11.3 34.8 16C36.7 17 39.1 17.5 41.2 17.5 44.8 17.5 48.5 15.6 48.5 11.6 48.5 8.7 46.6 7.3 44.1 6.8"/></g></g></svg>